<svg width="338" height="23" viewBox="0 0 338 23" fill="none" xmlns="http://www.w3.org/2000/svg">
<path d="M20.192 22.32C18.848 22.32 17.5573 22.0533 16.32 21.52C15.104 20.9653 13.792 19.952 12.384 18.48L7.232 13.104V22H3.072L3.04 5.04C3.04 3.952 2.89067 3.152 2.592 2.64C2.29333 2.10667 1.696 1.84 0.8 1.84H0.48V0.879999H4.32C5.06667 0.879999 5.64267 1.008 6.048 1.264C6.47467 1.52 6.77333 1.94667 6.944 2.544C7.136 3.14133 7.232 3.97333 7.232 5.04V11.12L12.768 4.24C13.5573 3.216 14.4 2.40533 15.296 1.808C16.2133 1.18933 17.2587 0.879999 18.432 0.879999H20.672V2C19.3493 2 18.208 2.17067 17.248 2.512C16.3093 2.832 15.4987 3.41867 14.816 4.272L10.048 10.16L17.44 17.84C18.2293 18.7147 19.1147 19.4827 20.096 20.144C21.0987 20.784 21.9093 21.1467 22.528 21.232V22C21.888 22.2133 21.1093 22.32 20.192 22.32ZM26.9235 6.16V22H25.3235V4.72C25.3235 3.824 25.0995 3.12 24.6515 2.608C24.2248 2.096 23.4888 1.84 22.4435 1.84H22.2835V0.879999H24.5235C25.7182 0.879999 26.6888 1.04 27.4355 1.36C28.2035 1.65867 28.8435 2.13867 29.3555 2.8L40.3635 15.6V0.879999H41.9635V22.096H40.4915L26.9235 6.16ZM64.9838 22.64C62.8078 22.64 60.8344 22.1387 59.0638 21.136C57.3144 20.112 55.9384 18.7253 54.9358 16.976C53.9544 15.2053 53.4638 13.2533 53.4638 11.12C53.4638 9.072 53.9011 7.22667 54.7758 5.584C55.6504 3.92 56.8878 2.61867 58.4878 1.68C60.1091 0.719999 61.9544 0.24 64.0238 0.24C65.9011 0.24 67.5011 0.485333 68.8238 0.976C70.1464 1.46667 71.1278 2.08533 71.7678 2.832C72.1304 3.30133 72.3544 3.89867 72.4398 4.624C72.5464 5.34933 72.5998 6.23467 72.5998 7.28H71.6398C71.2344 5.33867 70.4878 3.92 69.3998 3.024C68.3331 2.128 66.8611 1.68 64.9838 1.68C62.5944 1.68 60.8238 2.576 59.6718 4.368C58.5198 6.16 57.9438 8.41067 57.9438 11.12C57.9438 14.768 58.5731 17.392 59.8318 18.992C61.1118 20.5707 62.8291 21.36 64.9838 21.36C66.6478 21.36 68.0878 21.0827 69.3038 20.528V14.832C69.3038 13.7013 69.7304 12.7733 70.5838 12.048C71.4371 11.3013 73.0798 10.928 75.5118 10.928V11.728C74.1464 11.728 73.4638 12.7413 73.4638 14.768V20.496C72.2478 21.2427 70.9464 21.7867 69.5598 22.128C68.1731 22.4693 66.6478 22.64 64.9838 22.64ZM78.8838 5.04C78.8838 3.952 78.7344 3.152 78.4358 2.64C78.1371 2.10667 77.5398 1.84 76.6438 1.84H76.3238V0.879999H80.1638C80.9318 0.879999 81.5184 1.008 81.9238 1.264C82.3291 1.52 82.6171 1.94667 82.7878 2.544C82.9584 3.12 83.0438 3.952 83.0438 5.04V20.56H94.0838V22H78.8838V5.04ZM104.338 22.64C102.268 22.64 100.423 22.1493 98.8018 21.168C97.2018 20.1867 95.9644 18.8427 95.0898 17.136C94.2151 15.4293 93.7778 13.5307 93.7778 11.44C93.7778 9.34933 94.2151 7.45067 95.0898 5.744C95.9644 4.03733 97.2018 2.69333 98.8018 1.712C100.423 0.730666 102.268 0.24 104.338 0.24C106.407 0.24 108.242 0.730666 109.842 1.712C111.442 2.69333 112.679 4.03733 113.554 5.744C114.428 7.45067 114.866 9.34933 114.866 11.44C114.866 13.5307 114.428 15.4293 113.554 17.136C112.679 18.8427 111.442 20.1867 109.842 21.168C108.242 22.1493 106.407 22.64 104.338 22.64ZM104.338 21.2C106.279 21.2 107.783 20.3573 108.85 18.672C109.916 16.9653 110.45 14.5547 110.45 11.44C110.45 8.32533 109.916 5.92533 108.85 4.24C107.783 2.53333 106.279 1.68 104.338 1.68C102.396 1.68 100.892 2.53333 99.8258 4.24C98.7804 5.92533 98.2578 8.32533 98.2578 11.44C98.2578 14.5547 98.7804 16.9653 99.8258 18.672C100.892 20.3573 102.396 21.2 104.338 21.2ZM118.915 5.04C118.915 3.952 118.766 3.152 118.467 2.64C118.168 2.10667 117.571 1.84 116.675 1.84H116.355V0.879999H124.995C127.683 0.879999 129.923 1.25333 131.715 2C133.528 2.74667 134.435 4.24 134.435 6.48C134.435 7.46133 134.04 8.38933 133.251 9.264C132.483 10.1173 131.395 10.7253 129.987 11.088C133.592 11.4507 135.395 13.136 135.395 16.144C135.395 18.3627 134.51 19.8987 132.739 20.752C130.968 21.584 128.707 22 125.955 22H118.915V5.04ZM125.475 10.448C126.862 10.448 127.95 10.128 128.739 9.488C129.55 8.82667 129.955 7.77067 129.955 6.32C129.955 4.848 129.475 3.792 128.515 3.152C127.576 2.49067 126.403 2.16 124.995 2.16C124.419 2.16 123.971 2.20267 123.651 2.288L123.075 2.384V10.448H125.475ZM125.475 20.72C127.246 20.72 128.59 20.336 129.507 19.568C130.446 18.8 130.915 17.712 130.915 16.304C130.915 13.36 129.102 11.888 125.475 11.888H123.075V20.4C123.31 20.4853 123.523 20.5387 123.715 20.56C124.184 20.6667 124.718 20.72 125.315 20.72H125.475ZM156.377 22.128C155.033 22.128 153.817 21.8507 152.729 21.296C151.641 20.72 150.756 19.6107 150.073 17.968L149.337 16.176H140.825L138.201 22H136.537L145.977 0.879999H147.417L154.585 17.968C155.396 19.952 156.505 21.0187 157.913 21.168V21.968C157.529 22.0747 157.017 22.128 156.377 22.128ZM141.497 14.736H148.729L145.209 6.384L141.497 14.736ZM160.04 5.04C160.04 3.952 159.891 3.152 159.592 2.64C159.293 2.10667 158.696 1.84 157.8 1.84H157.48V0.879999H161.32C162.088 0.879999 162.675 1.008 163.08 1.264C163.485 1.52 163.773 1.94667 163.944 2.544C164.115 3.12 164.2 3.952 164.2 5.04V20.56H175.24V22H160.04V5.04ZM188.658 22C187.89 22 187.303 21.8827 186.898 21.648C186.493 21.392 186.205 20.976 186.034 20.4C185.863 19.8027 185.778 18.9493 185.778 17.84V0.879999H189.938V17.84C189.938 18.928 190.087 19.7387 190.386 20.272C190.685 20.784 191.282 21.04 192.178 21.04H192.498V22H188.658ZM197.705 6.16V22H196.105V4.72C196.105 3.824 195.881 3.12 195.433 2.608C195.006 2.096 194.27 1.84 193.225 1.84H193.065V0.879999H195.305C196.499 0.879999 197.47 1.04 198.217 1.36C198.985 1.65867 199.625 2.13867 200.137 2.8L211.145 15.6V0.879999H212.745V22.096H211.273L197.705 6.16ZM218.165 5.04C218.165 3.952 218.016 3.152 217.717 2.64C217.418 2.10667 216.821 1.84 215.925 1.84H215.605V0.879999H229.013C230.826 0.879999 231.733 1.73333 231.733 3.44V6.16H230.773C230.773 4.816 230.432 3.84533 229.749 3.248C229.088 2.62933 228.096 2.32 226.773 2.32H222.325V10.48H229.365V11.92H222.325V22H218.165V5.04ZM244.119 22.64C242.05 22.64 240.204 22.1493 238.583 21.168C236.983 20.1867 235.746 18.8427 234.871 17.136C233.996 15.4293 233.559 13.5307 233.559 11.44C233.559 9.34933 233.996 7.45067 234.871 5.744C235.746 4.03733 236.983 2.69333 238.583 1.712C240.204 0.730666 242.05 0.24 244.119 0.24C246.188 0.24 248.023 0.730666 249.623 1.712C251.223 2.69333 252.46 4.03733 253.335 5.744C254.21 7.45067 254.647 9.34933 254.647 11.44C254.647 13.5307 254.21 15.4293 253.335 17.136C252.46 18.8427 251.223 20.1867 249.623 21.168C248.023 22.1493 246.188 22.64 244.119 22.64ZM244.119 21.2C246.06 21.2 247.564 20.3573 248.631 18.672C249.698 16.9653 250.231 14.5547 250.231 11.44C250.231 8.32533 249.698 5.92533 248.631 4.24C247.564 2.53333 246.06 1.68 244.119 1.68C242.178 1.68 240.674 2.53333 239.607 4.24C238.562 5.92533 238.039 8.32533 238.039 11.44C238.039 14.5547 238.562 16.9653 239.607 18.672C240.674 20.3573 242.178 21.2 244.119 21.2ZM263.268 2.32H260.996C259.801 2.32 258.884 2.61867 258.244 3.216C257.625 3.81333 257.316 4.79467 257.316 6.16H256.356V3.44C256.356 1.73333 257.262 0.879999 259.076 0.879999H274.116V2.32H267.428V22H263.268V2.32ZM277.29 5.04C277.29 3.952 277.141 3.152 276.842 2.64C276.543 2.10667 275.946 1.84 275.05 1.84H274.73V0.879999H288.842C290.655 0.879999 291.562 1.73333 291.562 3.44V6.16H290.602C290.602 4.83733 290.261 3.86667 289.578 3.248C288.917 2.62933 287.925 2.32 286.602 2.32H281.45V10.32H289.77V11.76H281.45V20.56H286.922C288.138 20.56 289.151 20.2933 289.962 19.76C290.773 19.2053 291.445 18.256 291.978 16.912L292.842 17.232L291.914 19.76C291.637 20.528 291.306 21.0933 290.922 21.456C290.538 21.8187 289.941 22 289.13 22H277.29V5.04ZM305.182 22.64C302.984 22.64 301.086 22.1707 299.486 21.232C297.907 20.272 296.702 18.9707 295.87 17.328C295.038 15.6853 294.622 13.8293 294.622 11.76C294.622 9.62667 295.08 7.68533 295.998 5.936C296.915 4.16533 298.174 2.77867 299.774 1.776C301.395 0.752 303.198 0.24 305.182 0.24C307.059 0.24 308.627 0.485333 309.885 0.976C311.144 1.44533 312.104 2.064 312.766 2.832C313.15 3.32267 313.384 3.93067 313.47 4.656C313.555 5.38133 313.598 6.39467 313.598 7.696H312.638C312.232 5.73333 311.486 4.24 310.398 3.216C309.31 2.192 307.891 1.68 306.142 1.68C303.966 1.68 302.248 2.448 300.99 3.984C299.731 5.52 299.102 8.112 299.102 11.76C299.102 14.4693 299.678 16.72 300.83 18.512C301.982 20.304 303.752 21.2 306.142 21.2C307.635 21.2 309 20.8053 310.238 20.016C311.496 19.2267 312.51 18.096 313.278 16.624L314.398 17.488C313.374 19.28 312.136 20.592 310.686 21.424C309.235 22.2347 307.4 22.64 305.182 22.64ZM318.196 5.04C318.196 3.952 318.047 3.152 317.748 2.64C317.45 2.10667 316.852 1.84 315.956 1.84H315.636V0.879999H319.476C320.244 0.879999 320.831 1.008 321.236 1.264C321.642 1.52 321.93 1.94667 322.1 2.544C322.271 3.12 322.356 3.952 322.356 5.04V10.32H330.996V0.879999H335.156V17.84C335.156 18.928 335.306 19.7387 335.604 20.272C335.903 20.784 336.5 21.04 337.396 21.04H337.716V22H333.876C333.108 22 332.522 21.8827 332.116 21.648C331.711 21.392 331.423 20.976 331.252 20.4C331.082 19.8027 330.996 18.9493 330.996 17.84V11.76H322.356V22H318.196V5.04Z" fill="white"/>
</svg>
